<svg xmlns="http://www.w3.org/2000/svg" viewBox="0 0 300.42 169.77"><defs><style>.cls-1{fill:#fff;}</style></defs><title>Asset 2</title><g id="Layer_2" data-name="Layer 2"><g id="Layer_1-2" data-name="Layer 1"><path class="cls-1" d="M150.21,165.08a30.22,30.22,0,0,1-8.42-1.2l-116.62-35A29,29,0,0,1,4.35,101V68.82A29,29,0,0,1,25.17,40.9l116.61-35a30.17,30.17,0,0,1,16.84,0l116.62,35a29,29,0,0,1,20.83,27.92V101a29,29,0,0,1-20.83,27.92l-116.62,35A30.23,30.23,0,0,1,150.21,165.08Zm0-159.42a29.24,29.24,0,0,0-8.15,1.16l-116.61,35a28,28,0,0,0-20.14,27V101a28,28,0,0,0,20.14,27l116.61,35a29.24,29.24,0,0,0,16.29,0l116.61-35a28,28,0,0,0,20.14-27V68.82a28,28,0,0,0-20.14-27h0l-116.62-35A29.21,29.21,0,0,0,150.21,5.66Z"/><path class="cls-1" d="M150.2,169.77a31.25,31.25,0,0,1-8.88-1.29L22,131.83A31.19,31.19,0,0,1,0,101.71V68.06A31.19,31.19,0,0,1,22,37.94L141.31,1.3a31.18,31.18,0,0,1,17.79,0L278.43,37.94h0a31.19,31.19,0,0,1,22,30.12v33.64a31.19,31.19,0,0,1-22,30.12L159.11,168.48A31.27,31.27,0,0,1,150.2,169.77Zm0-166.88a28.32,28.32,0,0,0-8.07,1.18L22.83,40.71A28.31,28.31,0,0,0,2.9,68.06v33.64a28.3,28.3,0,0,0,19.93,27.35l119.33,36.65a28.29,28.29,0,0,0,16.11,0l119.31-36.64a28.31,28.31,0,0,0,19.94-27.35V68.06a28.31,28.31,0,0,0-19.94-27.35h0L158.25,4.07A28.27,28.27,0,0,0,150.21,2.9Z"/><path class="cls-1" d="M67.87,65.51,23.41,61.57l44.39-3.94A13.28,13.28,0,0,0,67.87,65.51Z"/><path class="cls-1" d="M232.07,57.64l44.39,3.94L232,65.51A13.28,13.28,0,0,0,232.07,57.64Z"/><path class="cls-1" d="M86.93,78.42A10.85,10.85,0,0,1,80,76a11.24,11.24,0,0,1-4-6.16l-.23-.91,4.54-1.31.23,1a6.26,6.26,0,0,0,2.32,3.67,6.35,6.35,0,0,0,4,1.39,6.14,6.14,0,0,0,4.62-1.89,6.43,6.43,0,0,0-2.91-10.83l-4-1a9.53,9.53,0,0,1-5.28-3.51,9.67,9.67,0,0,1-2-6,9.81,9.81,0,0,1,9.84-9.84,9.7,9.7,0,0,1,4.92,1.34,9.89,9.89,0,0,1,3.61,3.55l.5.85-4.16,2.34-.48-.83a4.68,4.68,0,0,0-4.4-2.49,4.79,4.79,0,0,0-3.59,1.53,5.06,5.06,0,0,0-.42,6.71,4.67,4.67,0,0,0,2.65,1.76l4,1a10.88,10.88,0,0,1,6,4,11,11,0,0,1,2.33,6.85,10.8,10.8,0,0,1-3.32,8A10.94,10.94,0,0,1,86.93,78.42Z"/><path class="cls-1" d="M124.36,77.91H119.6v-21H109.22v21h-4.75v-21h-5l2.83-4.81h2.15v-11h4.75v11H119.6v-11h4.75Z"/><path class="cls-1" d="M150.91,77.91h-4.75V68.05H135.57v9.85h-4.75V68.05h-4.38l2.85-4.75h1.53V50.41a9.79,9.79,0,0,1,1.36-5,10.17,10.17,0,0,1,3.68-3.68,9.9,9.9,0,0,1,10,0,10.17,10.17,0,0,1,3.68,3.68,9.79,9.79,0,0,1,1.36,5ZM135.57,63.3h10.59V50.41a5.08,5.08,0,0,0-.75-2.77,5.14,5.14,0,0,0-2-1.87,5.39,5.39,0,0,0-2.57-.66,4.88,4.88,0,0,0-3.81,1.59,5.28,5.28,0,0,0-1.49,3.71Z"/><path class="cls-1" d="M166,80.61,152.58,41.08h5L166,65.82l6.16-18.17,6.16,18.17,8.39-24.75h5L178.3,80.61l-6.16-18.17Z"/><path class="cls-1" d="M198.18,50.28,195,45.16h-1.66V40.36h4.8Z"/><path class="cls-1" d="M210.79,78.42A10.85,10.85,0,0,1,203.88,76a11.24,11.24,0,0,1-4-6.16l-.23-.91,4.54-1.31.23,1a6.26,6.26,0,0,0,2.32,3.67,6.35,6.35,0,0,0,4,1.39,6.14,6.14,0,0,0,4.62-1.89,6.43,6.43,0,0,0-2.91-10.83l-4-1a9.53,9.53,0,0,1-5.28-3.51,9.67,9.67,0,0,1-2-6,9.81,9.81,0,0,1,9.84-9.84A9.7,9.7,0,0,1,216,41.9a9.89,9.89,0,0,1,3.61,3.55l.5.85-4.16,2.34-.48-.83a4.68,4.68,0,0,0-4.4-2.49,4.79,4.79,0,0,0-3.59,1.53,5.06,5.06,0,0,0-.42,6.71,4.67,4.67,0,0,0,2.65,1.76l4,1a10.88,10.88,0,0,1,6,4A11,11,0,0,1,222,67.19a10.8,10.8,0,0,1-3.32,8A10.94,10.94,0,0,1,210.79,78.42Z"/><path class="cls-1" d="M43.49,111.77a6.64,6.64,0,0,1-.31-2.66v-3.4c0-2-.68-2.75-2.22-2.75H39.78v8.81h-3.4V90.14h5.13c3.52,0,5,1.64,5,5v1.7c0,2.23-.71,3.68-2.22,4.39,1.7.71,2.26,2.35,2.26,4.6v3.34a6.36,6.36,0,0,0,.37,2.63ZM39.78,93.23v6.64h1.33c1.27,0,2-.56,2-2.29V95.45c0-1.55-.53-2.22-1.73-2.22Z"/><path class="cls-1" d="M64.57,99.25h4.67v3.09H64.57v6.33h5.87v3.09H61.17V90.14h9.27v3.09H64.57Z"/><path class="cls-1" d="M89.47,89.89c3.31,0,5,2,5,5.44V96H91.27v-.9c0-1.54-.62-2.13-1.7-2.13s-1.7.59-1.7,2.13c0,4.45,6.64,5.28,6.64,11.46,0,3.46-1.73,5.44-5.07,5.44s-5.07-2-5.07-5.44v-1.33h3.21v1.55c0,1.54.68,2.1,1.76,2.1s1.76-.56,1.76-2.1c0-4.45-6.64-5.28-6.64-11.46C84.47,91.87,86.17,89.89,89.47,89.89Z"/><path class="cls-1" d="M107.83,90.14h10.51v3.09h-3.55v18.54h-3.4V93.23h-3.55Z"/><path class="cls-1" d="M142,111.77h-3.43l-.59-3.92h-4.17l-.59,3.92h-3.12l3.46-21.63h5Zm-7.76-6.86h3.28L135.89,94Z"/><path class="cls-1" d="M159.19,90.14v16.69c0,1.54.68,2.1,1.76,2.1s1.76-.56,1.76-2.1V90.14h3.21v16.47c0,3.46-1.73,5.44-5.07,5.44s-5.07-2-5.07-5.44V90.14Z"/><path class="cls-1" d="M187.71,111.77a6.64,6.64,0,0,1-.31-2.66v-3.4c0-2-.68-2.75-2.22-2.75H184v8.81h-3.4V90.14h5.13c3.52,0,5,1.64,5,5v1.7c0,2.23-.71,3.68-2.23,4.39,1.7.71,2.26,2.35,2.26,4.6v3.34a6.38,6.38,0,0,0,.37,2.63ZM184,93.23v6.64h1.33c1.27,0,2-.56,2-2.29V95.45c0-1.55-.53-2.22-1.73-2.22Z"/><path class="cls-1" d="M216.38,111.77H213l-.59-3.92H208.2l-.59,3.92h-3.12l3.46-21.63h5Zm-7.76-6.86h3.28L210.27,94Z"/><path class="cls-1" d="M233.35,96.1v15.67h-3.06V90.14h4.26L238,103.09V90.14h3v21.63h-3.49Z"/><path class="cls-1" d="M254.89,90.14h10.51v3.09h-3.55v18.54h-3.4V93.23h-3.55Z"/><path class="cls-1" d="M83.47,136.11V123.94h1.36v10.94H88.3v1.23Z"/><path class="cls-1" d="M93.91,133.66l-.47,2.45H92.19l2.33-12.17h2l2.33,12.17H97.46L97,133.66Zm.17-1.16H96.8l-1.37-7Z"/><path class="cls-1" d="M104.29,136.11h-1.22V123.94h1.72l2.82,8.8v-8.8h1.2v12.17H107.4l-3.11-9.84Z"/><path class="cls-1" d="M118.79,126.88V128H117.5v-1.16c0-1.1-.43-1.76-1.43-1.76s-1.42.66-1.42,1.76v6.43c0,1.09.45,1.76,1.42,1.76s1.43-.66,1.43-1.76v-1.58h1.29v1.51c0,1.84-.87,3.06-2.75,3.06s-2.73-1.22-2.73-3.06v-6.29c0-1.84.87-3.06,2.73-3.06S118.79,125,118.79,126.88Z"/><path class="cls-1" d="M124.61,133.66l-.47,2.45h-1.25l2.33-12.17h2l2.33,12.17h-1.36l-.47-2.45Zm.17-1.16h2.71l-1.37-7Z"/><path class="cls-1" d="M139.05,126.86v.33h-1.29v-.4c0-1.09-.42-1.74-1.39-1.74s-1.39.64-1.39,1.72c0,2.73,4.09,3,4.09,6.42,0,1.84-.89,3-2.75,3s-2.73-1.2-2.73-3v-.7h1.27v.76c0,1.1.45,1.74,1.42,1.74s1.43-.64,1.43-1.74c0-2.71-4.07-3-4.07-6.4,0-1.88.87-3,2.7-3S139.05,125,139.05,126.86Z"/><path class="cls-1" d="M145.24,136.11V125.17H143v-1.23h5.84v1.23H146.6v10.94Z"/><path class="cls-1" d="M157.32,129.33v1.22h-3v4.33H158v1.23h-5V123.94h5v1.23h-3.65v4.16Z"/><path class="cls-1" d="M165.18,123.94c1.91,0,2.71,1,2.71,2.78v1c0,1.34-.47,2.17-1.51,2.5,1.11.33,1.53,1.23,1.53,2.54v1.89a3,3,0,0,0,.24,1.46h-1.37a3.19,3.19,0,0,1-.23-1.48v-1.91c0-1.37-.64-1.81-1.77-1.81h-1v5.2h-1.36V123.94Zm-.35,5.74c1.08,0,1.72-.35,1.72-1.67v-1.16c0-1.1-.4-1.67-1.41-1.67h-1.32v4.5Z"/><path class="cls-1" d="M173.12,136.11h-.5v-1.69h1.3V136l-.68,1.65h-.56Z"/><path class="cls-1" d="M184.33,126.88c0-1.86.92-3.06,2.78-3.06s2.8,1.2,2.8,3.06v6.29c0,1.84-.92,3.06-2.8,3.06s-2.78-1.22-2.78-3.06Zm1.34,6.36c0,1.11.47,1.76,1.44,1.76s1.44-.64,1.44-1.76v-6.43c0-1.1-.45-1.76-1.44-1.76s-1.44.66-1.44,1.76Z"/><path class="cls-1" d="M195.77,130.63v5.48h-1.36V123.94h1.36v5.48h3v-5.48h1.36v12.17h-1.36v-5.48Z"/><path class="cls-1" d="M206.08,123.94v12.17h-1.36V123.94Z"/><path class="cls-1" d="M210.58,126.88c0-1.86.92-3.06,2.78-3.06s2.8,1.2,2.8,3.06v6.29c0,1.84-.92,3.06-2.8,3.06s-2.78-1.22-2.78-3.06Zm1.34,6.36c0,1.11.47,1.76,1.44,1.76s1.44-.64,1.44-1.76v-6.43c0-1.1-.45-1.76-1.44-1.76s-1.44.66-1.44,1.76Z"/></g></g></svg>